# File created by Blade
# Date/Time:  Thu Jan 15 17:55:17 2015
#---------------------------------------------------------
:version 1.10
:name HOM
:units
  mass 1.0
  length 1.000000
  angle deg
:documentation
     Acclaim Skeleton File
:root
   axis xyz
   order TX TY TZ RX RY RZ
   position 0.000000 0.000000 0.000000
   orientation 0 0 0
:bonedata
   begin
      id 1
      name Spine_dum
      direction 0.000000 1.000000 0.000000
      length 5.015652
      axis 0.0 0.0 0.0 xyz
   end
   begin
      id 2
      name LeftUpLeg_dum
      direction 1.000000 0.000000 0.000000
      length 4.275145
      axis 0.0 0.0 0.0 xyz
   end
   begin
      id 3
      name RightUpLeg_dum
      direction -1.000000 0.000000 0.000000
      length 4.275145
      axis 0.0 0.0 0.0 xyz
   end
   begin
      id 4
      name Spine
      direction 0.000000 1.000000 0.000000
      length 0.000000
      axis 0.0 0.0 0.0 xyz
      dof rx ry rz
   end
   begin
      id 5
      name Spine_dum1
      direction 0.000000 1.000000 0.000000
      length 15.980521
      axis 0.0 0.0 0.0 xyz
   end
   begin
      id 6
      name Spine_dum2
      direction 0.000000 1.000000 0.000000
      length 12.162712
      axis 0.0 0.0 0.0 xyz
   end
   begin
      id 7
      name Spine_dum3
      direction 0.000000 1.000000 0.000000
      length 12.162712
      axis 0.0 0.0 0.0 xyz
   end
   begin
      id 8
      name Head
      direction 0.000000 1.000000 0.000000
      length 4.527550
      axis 0.0 0.0 0.0 xyz
      dof rx ry rz
   end
   begin
      id 9
      name LeftShoulder
      direction 1.000000 0.000000 0.000000
      length 7.205867
      axis 0.0 0.0 -90.0 xyz
      dof rx ry rz
   end
   begin
      id 10
      name LeftArm
      direction 1.000000 0.000000 0.000000
      length 10.786708
      axis 0.0 0.0 -90.0 xyz
      dof rx ry rz
   end
   begin
      id 11
      name LeftForeArm
      direction 1.000000 0.000000 0.000000
      length 7.946034
      axis 0.0 0.0 -90.0 xyz
      dof rz ry rx
   end
   begin
      id 12
      name LeftHand
      direction 0.000000 0.000000 0.000000
      length 0.000000
      axis 0.0 0.0 -90.0 xyz
      dof rx ry rz
   end
   begin
      id 13
      name LeftHand_dum1
      direction 0.000000 0.000000 0.000000
      length 0.000000
      axis 0.0 0.0 -90.0 xyz
   end
   begin
      id 14
      name LeftHand_dum2
      direction 1.000000 0.000000 0.000000
      length 3.937000
      axis 0.0 0.0 -90.0 xyz
   end
   begin
      id 15
      name LeftHandThumb1
      direction 0.000000 0.000000 1.000000
      length 3.937000
      axis 0.0 0.0 -90.0 xyz
      dof rx ry rz
   end
   begin
      id 16
      name RightShoulder
      direction -1.000000 0.000000 0.000000
      length 7.205867
      axis 0.0 0.0 90.0 xyz
      dof rx ry rz
   end
   begin
      id 17
      name RightArm
      direction -1.000000 0.000000 0.000000
      length 10.786708
      axis 0.0 0.0 90.0 xyz
      dof rx ry rz
   end
   begin
      id 18
      name RightForeArm
      direction -1.000000 0.000000 0.000000
      length 7.946034
      axis 0.0 0.0 90.0 xyz
      dof rz ry rx
   end
   begin
      id 19
      name RightHand
      direction 0.000000 0.000000 0.000000
      length 0.000000
      axis 0.0 0.0 90.0 xyz
      dof rx ry rz
   end
   begin
      id 20
      name RightHand_dum1
      direction 0.000000 0.000000 0.000000
      length 0.000000
      axis 0.0 0.0 90.0 xyz
   end
   begin
      id 21
      name RightHand_dum2
      direction -1.000000 0.000000 0.000000
      length 3.937000
      axis 0.0 0.0 90.0 xyz
   end
   begin
      id 22
      name RightHandThumb1
      direction 0.000000 0.000000 1.000000
      length 3.937000
      axis 0.0 0.0 90.0 xyz
      dof rx ry rz
   end
   begin
      id 23
      name LeftUpLeg
      direction 0.000000 -1.000000 0.000000
      length 17.046659
      axis 0.0 0.0 0.0 xyz
      dof rx ry rz
   end
   begin
      id 24
      name LeftLeg
      direction 0.000000 -1.000000 0.000000
      length 17.458438
      axis 0.0 0.0 0.0 xyz
      dof rx ry rz
   end
   begin
      id 25
      name LeftFoot
      direction 0.000000 -0.258819 0.965926
      length 5.099406
      axis 15.0 0.0 0.0 xyz
      dof rx ry rz
   end
   begin
      id 26
      name LeftToeBase
      direction 0.000000 0.000000 1.000000
      length 2.952750
      axis 0.0 0.0 0.0 xyz
      dof rx ry rz
   end
   begin
      id 27
      name RightUpLeg
      direction 0.000000 -1.000000 0.000000
      length 17.046659
      axis 0.0 0.0 0.0 xyz
      dof rx ry rz
   end
   begin
      id 28
      name RightLeg
      direction 0.000000 -1.000000 0.000000
      length 17.458438
      axis 0.0 0.0 0.0 xyz
      dof rx ry rz
   end
   begin
      id 29
      name RightFoot
      direction 0.000000 -0.258819 0.965926
      length 5.099406
      axis 15.0 0.0 0.0 xyz
      dof rx ry rz
   end
   begin
      id 30
      name RightToeBase
      direction 0.000000 0.000000 1.000000
      length 2.952750
      axis 0.0 0.0 0.0 xyz
      dof rx ry rz
   end
:hierarchy
   begin
      root Spine_dum LeftUpLeg_dum RightUpLeg_dum
      Spine_dum Spine
      LeftUpLeg_dum LeftUpLeg
      RightUpLeg_dum RightUpLeg
      Spine Spine_dum1 Spine_dum2 Spine_dum3
      Spine_dum1 Head
      Spine_dum2 LeftShoulder
      Spine_dum3 RightShoulder
      LeftShoulder LeftArm
      LeftArm LeftForeArm
      LeftForeArm LeftHand
      LeftHand LeftHand_dum1 LeftHand_dum2
      LeftHand_dum1 LeftHandThumb1
      RightShoulder RightArm
      RightArm RightForeArm
      RightForeArm RightHand
      RightHand RightHand_dum1 RightHand_dum2
      RightHand_dum1 RightHandThumb1
      LeftUpLeg LeftLeg
      LeftLeg LeftFoot
      LeftFoot LeftToeBase
      RightUpLeg RightLeg
      RightLeg RightFoot
      RightFoot RightToeBase
   end

# File created by Blade
# Date/Time:  Thu Jan 15 17:55:09 2015
# Frame Rate: 120.000 fps
#------------------------------------------------------
:FULLY-SPECIFIED
:DEGREES
1149
root 7.498942 34.727834 -6.056921 -3.095229 0.830094 3.226088
Spine -36.973293 -18.228087 14.648063
Head 22.878502 11.317726 12.863087
LeftShoulder -39.583858 3.166703 9.454675
LeftArm -20.193331 -48.280412 -35.999069
LeftForeArm -0.000000 10.038728 5.687810
LeftHand 4.861091 -0.000000 16.300796
LeftHandThumb1 -26.253704 33.147579 0.000000
RightShoulder -12.111041 22.467944 -22.404737
RightArm -31.766488 50.988574 -1.815906
RightForeArm 0.000000 -37.467938 21.963192
RightHand -4.535869 -0.000000 -16.597685
RightHandThumb1 -24.326973 -32.862282 -0.000000
LeftUpLeg 12.892659 3.801439 5.257452
LeftLeg 6.631292 -0.000000 -0.000000
LeftFoot -29.561410 2.977993 -20.759057
LeftToeBase 24.514314 -0.000000 -0.000000
RightUpLeg 15.035736 -17.167555 -14.782929
RightLeg 1.809736 -0.000000 -0.000000
RightFoot -29.247321 -26.622638 18.937956
RightToeBase 28.330414 -0.000000 -0.000000
1150
root 7.511679 34.718611 -6.031609 -3.277543 0.912286 3.281536
Spine -37.127683 -18.125034 14.677586
Head 22.869501 11.141516 12.866098
LeftShoulder -39.725065 3.217864 9.500667
LeftArm -21.094025 -48.767552 -35.209416
LeftForeArm -0.000000 9.830243 5.689410
LeftHand 4.721421 -0.000000 16.272306
LeftHandThumb1 -26.253704 33.147579 0.000000
RightShoulder -12.102717 22.246204 -22.180432
RightArm -32.122789 50.701604 -1.523031
RightForeArm -0.000000 -37.280808 21.558005
RightHand -4.434095 -0.000000 -16.547270
RightHandThumb1 -24.326973 -32.862282 -0.000000
LeftUpLeg 13.045327 3.735841 5.195541
LeftLeg 6.743942 -0.000000 -0.000000
LeftFoot -29.660036 2.958731 -20.736452
LeftToeBase 24.545476 -0.000000 -0.000000
RightUpLeg 15.193396 -17.052778 -14.909864
RightLeg 2.005389 -0.000000 -0.000000
RightFoot -29.441012 -26.688668 18.972823
RightToeBase 28.456250 -0.000000 -0.000000
1151
root 7.523978 34.710366 -6.006123 -3.435935 0.986213 3.332180
Spine -37.302234 -17.978599 14.696572
Head 22.853218 10.952602 12.849427
LeftShoulder -39.858748 3.301536 9.542255
LeftArm -21.912259 -49.090690 -34.529890
LeftForeArm 0.000000 9.431733 5.674572
LeftHand 4.873075 -0.000000 16.354700
LeftHandThumb1 -26.253704 33.147579 0.000000
RightShoulder -12.122226 22.019992 -22.017304
RightArm -32.716204 50.601444 -1.368021
RightForeArm -0.000000 -37.249739 21.390919
RightHand -4.630593 0.000000 -16.174454
RightHandThumb1 -24.326973 -32.862282 -0.000000
LeftUpLeg 13.186810 3.723884 5.153240
LeftLeg 6.836762 -0.000000 -0.000000
LeftFoot -29.706118 2.889083 -20.707903
LeftToeBase 24.520085 -0.000000 -0.000000
RightUpLeg 15.318671 -16.955673 -15.026256
RightLeg 2.216076 -0.000000 -0.000000
RightFoot -29.595976 -26.656486 19.062196
RightToeBase 28.333717 -0.000000 -0.000000
1152
root 7.533192 34.703462 -5.985973 -3.528279 1.087782 3.371354
Spine -37.527468 -17.811382 14.703603
Head 22.816146 10.685909 12.826914
LeftShoulder -39.923374 3.302208 9.613623
LeftArm -22.902707 -49.564107 -33.642206
LeftForeArm -0.000000 9.008814 5.634289
LeftHand 5.024029 -0.000000 16.725755
LeftHandThumb1 -26.253704 33.147579 0.000000
RightShoulder -12.202075 21.787854 -21.883536
RightArm -33.361142 50.509776 -1.232967
RightForeArm -0.000000 -37.181370 21.307325
RightHand -4.673770 -0.000000 -15.778824
RightHandThumb1 -24.326973 -32.862282 -0.000000
LeftUpLeg 13.254076 3.665159 5.112442
LeftLeg 6.915849 -0.000000 -0.000000
LeftFoot -29.767201 2.841658 -20.693610
LeftToeBase 24.546094 -0.000000 -0.000000
RightUpLeg 15.374813 -16.906784 -15.111276
RightLeg 2.432321 -0.000000 -0.000000
RightFoot -29.769360 -26.653306 19.125152
RightToeBase 28.374912 -0.000000 -0.000000
1153
root 7.542428 34.696830 -5.966700 -3.625106 1.209117 3.427984
Spine -37.720315 -17.672042 14.655174
Head 22.720013 10.437943 12.836700
LeftShoulder -40.056799 3.376163 9.679569
LeftArm -23.727377 -49.966526 -32.952583
LeftForeArm -0.000000 8.691409 5.703587
LeftHand 4.950614 0.000000 16.842694
LeftHandThumb1 -26.253704 33.147579 0.000000
RightShoulder -12.329319 21.539458 -21.706858
RightArm -33.946610 50.479246 -1.083293
RightForeArm -0.000000 -37.074986 21.262348
RightHand -4.755720 -0.000000 -15.487318
RightHandThumb1 -24.326973 -32.862282 -0.000000
LeftUpLeg 13.324466 3.605763 5.059613
LeftLeg 6.987622 -0.000000 -0.000000
LeftFoot -29.810127 2.774720 -20.695467
LeftToeBase 24.590415 -0.000000 -0.000000
RightUpLeg 15.447136 -16.814262 -15.197540
RightLeg 2.630709 -0.000000 -0.000000
RightFoot -29.942434 -26.708279 19.219244
RightToeBase 28.292535 -0.000000 -0.000000
1154
root 7.552581 34.689043 -5.947166 -3.734222 1.336493 3.484500
Spine -37.868887 -17.535836 14.582939
Head 22.571850 10.145262 12.828606
LeftShoulder -40.155890 3.475242 9.773868
LeftArm -24.547116 -50.271136 -32.372768
LeftForeArm -0.000000 8.086065 5.753258
LeftHand 4.850093 0.000000 16.598504
LeftHandThumb1 -26.253704 33.147579 0.000000
RightShoulder -12.485046 21.288779 -21.521914
RightArm -34.568617 50.554137 -0.998930
RightForeArm 0.000000 -37.012129 21.251292
RightHand -4.880165 -0.000000 -15.231223
RightHandThumb1 -24.326973 -32.862282 -0.000000
LeftUpLeg 13.409773 3.550812 5.007948
LeftLeg 7.053429 -0.000000 -0.000000
LeftFoot -29.856704 2.704111 -20.659696
LeftToeBase 24.611650 -0.000000 -0.000000
RightUpLeg 15.561854 -16.748621 -15.301491
RightLeg 2.783783 -0.000000 -0.000000
RightFoot -30.117634 -26.785870 19.238593
RightToeBase 28.506056 -0.000000 -0.000000
1155
root 7.563834 34.683234 -5.932542 -3.809697 1.428687 3.562936
Spine -38.023745 -17.357460 14.483091
Head 22.427685 9.891940 12.829297
LeftShoulder -40.257435 3.464226 9.872044
LeftArm -25.460108 -50.528896 -31.641570
LeftForeArm 0.000000 7.366330 5.826482
LeftHand 4.971900 -0.000000 16.609595
LeftHandThumb1 -26.253704 33.147579 0.000000
RightShoulder -12.676716 21.034155 -21.348725
RightArm -35.211787 50.692148 -0.897040
RightForeArm -0.000000 -36.888467 21.315491
RightHand -4.971557 -0.000000 -14.967047
RightHandThumb1 -24.326973 -32.862282 -0.000000
LeftUpLeg 13.440298 3.598268 4.951872
LeftLeg 7.158792 -0.000000 -0.000000
LeftFoot -29.859552 2.565670 -20.634083
LeftToeBase 24.610362 -0.000000 -0.000000
RightUpLeg 15.591472 -16.730574 -15.427382
RightLeg 3.002208 -0.000000 -0.000000
RightFoot -30.261922 -26.726871 19.262575
RightToeBase 28.468121 -0.000000 -0.000000
1156
root 7.573369 34.678580 -5.923099 -3.854235 1.521012 3.620636
Spine -38.204580 -17.201956 14.396433
Head 22.339699 9.659397 12.889496
LeftShoulder -40.384112 3.583202 9.942169
LeftArm -26.344818 -50.933031 -31.000984
LeftForeArm -0.000000 6.827200 5.980953
LeftHand 4.726777 -0.000000 16.670866
LeftHandThumb1 -26.253704 33.147579 0.000000
RightShoulder -12.811353 20.853131 -21.111604
RightArm -35.758384 50.600189 -0.758102
RightForeArm -0.000000 -36.726025 21.318576
RightHand -4.995676 -0.000000 -14.833742
RightHandThumb1 -24.326973 -32.862282 -0.000000
LeftUpLeg 13.435731 3.576199 4.897879
LeftLeg 7.255092 -0.000000 -0.000000
LeftFoot -29.880767 2.480246 -20.634341
LeftToeBase 24.590770 -0.000000 -0.000000
RightUpLeg 15.579753 -16.670396 -15.499559
RightLeg 3.209211 -0.000000 -0.000000
RightFoot -30.422931 -26.818432 19.275176
RightToeBase 28.497430 -0.000000 -0.000000
1157
root 7.580330 34.674373 -5.913400 -3.935869 1.648912 3.661558
Spine -38.332427 -17.117351 14.313081
Head 22.217416 9.446534 12.936560
LeftShoulder -40.551990 3.657601 10.080605
LeftArm -27.228594 -51.223413 -30.435680
LeftForeArm 0.000000 6.105750 6.155326
LeftHand 4.736419 -0.000000 16.697711
LeftHandThumb1 -26.253704 33.147579 0.000000
RightShoulder -12.929756 20.671103 -20.848553
RightArm -36.446530 50.657913 -0.742698
RightForeArm -0.000000 -36.648246 21.457182
RightHand -5.058883 -0.000000 -14.570256
RightHandThumb1 -24.326973 -32.862282 -0.000000
LeftUpLeg 13.462729 3.486279 4.853501
LeftLeg 7.347464 -0.000000 -0.000000
LeftFoot -29.920307 2.429205 -20.630051
LeftToeBase 24.626673 -0.000000 -0.000000
RightUpLeg 15.641790 -16.580181 -15.542556
RightLeg 3.358865 -0.000000 -0.000000
RightFoot -30.568089 -26.900969 19.379037
RightToeBase 28.440188 -0.000000 -0.000000
1158
root 7.588343 34.671293 -5.904326 -3.983726 1.724456 3.706122
Spine -38.464325 -16.920454 14.197815
Head 22.081448 9.174170 12.922970
LeftShoulder -40.619589 3.775301 10.151959
LeftArm -28.131244 -51.548785 -29.844887
LeftForeArm -0.000000 5.215526 6.334076
LeftHand 4.641776 -0.000000 16.475898
LeftHandThumb1 -26.253704 33.147579 0.000000
RightShoulder -13.129096 20.443110 -20.623538
RightArm -36.989379 50.627441 -0.552993
RightForeArm -0.000000 -36.463603 21.576505
RightHand -5.154885 -0.000000 -14.378655
RightHandThumb1 -24.326973 -32.862282 -0.000000
LeftUpLeg 13.471870 3.459680 4.810267
LeftLeg 7.427245 -0.000000 -0.000000
LeftFoot -29.935560 2.353928 -20.639543
LeftToeBase 24.601364 -0.000000 -0.000000
RightUpLeg 15.634989 -16.447376 -15.574143
RightLeg 3.535298 -0.000000 -0.000000
RightFoot -30.719029 -27.027342 19.422430
RightToeBase 28.460268 -0.000000 -0.000000
1159
root 7.594357 34.667558 -5.894625 -4.065874 1.818363 3.718792
Spine -38.548104 -16.789087 14.104501
Head 21.982287 8.961789 12.962766
LeftShoulder -40.757768 3.899830 10.248028
LeftArm -28.992364 -51.906181 -29.311897
LeftForeArm 0.000000 4.314813 6.502642
LeftHand 4.574771 -0.000000 16.477218
LeftHandThumb1 -26.253704 33.147579 0.000000
RightShoulder -13.278876 20.180130 -20.366726
RightArm -37.643018 50.723460 -0.451457
RightForeArm -0.000000 -36.357547 21.759785
RightHand -5.155483 -0.000000 -14.255618
RightHandThumb1 -24.326973 -32.862282 -0.000000
LeftUpLeg 13.520890 3.338849 4.781712
LeftLeg 7.488963 -0.000000 -0.000000
LeftFoot -29.989981 2.376576 -20.616818
LeftToeBase 24.613472 -0.000000 -0.000000
RightUpLeg 15.682078 -16.385262 -15.597581
RightLeg 3.690098 -0.000000 -0.000000
RightFoot -30.827440 -27.057493 19.560595
RightToeBase 28.328061 -0.000000 -0.000000
